<?xml version="1.0" encoding="UTF-8"?>
<svg id="svg153" width="104" height="118" version="1.1" xmlns="http://www.w3.org/2000/svg" viewBox="0 0 104 118"><defs id="defs49"><linearGradient id="linearGradient1010"><stop id="stop1006" stop-color="#424242" offset="0"></stop><stop id="stop1008" stop-color="#424242" stop-opacity="0" offset="1"></stop></linearGradient><linearGradient id="c" x1=".5" x2=".5" y1=".9731"><stop id="stop12" stop-color="#464646" stop-opacity="0" offset="0"></stop><stop id="stop14" stop-color="#424242" offset=".1854"></stop><stop id="stop16" stop-color="#424242" offset=".805"></stop><stop id="stop18" stop-color="#464646" stop-opacity="0" offset="1"></stop></linearGradient><linearGradient id="linearGradient966" x1="28.284" x2="28.284" y1="55.047" gradientTransform="matrix(.70711 0 0 1.4142 32 30)" gradientUnits="userSpaceOnUse" href="#c"></linearGradient><linearGradient id="linearGradient1012" x1="32.35" x2="32.35" y1="93.251" y2="106.51" gradientTransform="translate(0,2)" gradientUnits="userSpaceOnUse" href="#linearGradient1010"></linearGradient></defs><path id="fret1" d="m32 45v1h40v-1z" fill="#a6a6a6"></path><path id="fret2" d="m32 61v1h40v-1z" fill="#a6a6a6"></path><path id="fret3" d="m32 77v1h40v-1z" fill="#a6a6a6"></path><path id="fret4" d="m32 93v1h40v-1z" fill="#a6a6a6"></path><path id="string4" d="m32 30v80h1v-80z" fill="url(#linearGradient966)"></path><path id="string3" d="m45 30v80h1v-80z" fill="url(#linearGradient966)"></path><path id="string2" d="m58 30v80h1v-80z" fill="url(#linearGradient966)"></path><path id="string1" d="m71 30v80h1v-80z" fill="url(#linearGradient966)"></path><circle id="finger-string1" cx="71.5" cy="37.5" r="5.5" fill="#424242"></circle><circle id="finger-string2" cx="58.5" cy="53.5" r="5.5" fill="#424242"></circle><circle id="finger-string3" cx="45.5" cy="69.5" r="5.5" fill="#424242"></circle><circle id="finger-string4" cx="32.5" cy="85.5" r="5.5" fill="#424242"></circle><text id="fret" x="24.9464" y="41.382812" fill="#424242" font-family="sans-serif" font-size="9.733px" letter-spacing="0px" stroke-width=".24332" text-align="end" text-anchor="end" word-spacing="0px" xml:space="preserve" style="line-height: 1.25;"><tspan id="fret-value" x="24.9464" y="41.382812" fill="#424242" font-size="10.667px" stroke-width=".24332" text-align="end" text-anchor="end">3ยบ</tspan></text><text id="text2727" x="52.091145" y="18.297945" fill="#424242" font-family="sans-serif" font-size="13.333px" letter-spacing="0px" word-spacing="0px" xml:space="preserve" style="line-height: 1.25;"><tspan id="tspan2725" x="52.091145" y="18.297945" fill="#424242" font-family="sans-serif" font-weight="bold" text-align="center" text-anchor="middle">Db7+</tspan></text></svg>